<?xml version="1.0" encoding="UTF-8"?><svg id="Calque_2" xmlns="Nike/frontend/public/logooda.svg" viewBox="0 0 485.11 99.77"><defs>
<style>.cls-1{fill:none;stroke:#8d004c;stroke-linecap:round;stroke-miterlimit:10;stroke-width:3.76px;}.cls-2{fill:#8d004c;stroke-width:0px;}</style>
</defs><g id="Chapitre_1_-_Le_Logo"><g id="Page_3"><g id="Calque_8"><g id="Logo"><g id="ODA"><path class="cls-2" d="M35.37,97.85C11.79,97.85,0,82.16,0,50.78S11.79,2.4,35.37,2.4s35.37,16.13,35.37,48.38-11.79,47.07-35.37,47.07ZM35.37,81.37c11.51,0,17.26-10.2,17.26-30.59s-5.75-31.97-17.26-31.97-17.26,10.65-17.26,31.97,5.75,30.59,17.26,30.59Z"/><path class="cls-2" d="M83.36,98.36V1.88h17.37v96.48h-17.37ZM100.73,98.36v-17.37h7.49c8.77,0,15.35-2.51,19.74-7.53,4.39-5.01,6.58-12.34,6.58-21.97,0-10.62-2.19-18.65-6.58-24.09-4.39-5.44-10.97-8.16-19.74-8.16h-7.43l-1.65-17.37h9.14c30.21,0,45.32,16.53,45.32,49.6,0,31.25-15.11,46.88-45.32,46.88h-7.54Z"/><path class="cls-2" d="M157.41,98.36L185.27,1.88h22.01l27.86,96.48h-19.77l-18.5-71.4h-1.2l-18.5,71.4h-19.77ZM172.61,81v-17.37h48.24v17.37h-48.24Z"/></g><g id="Base_line"><path class="cls-2" d="M295.69,37.84c-1.99,0-3.89-.16-5.7-.49-1.81-.33-3.46-.81-4.94-1.43l.79-5.98c1.81.77,3.58,1.36,5.32,1.76,1.74.4,3.38.6,4.93.6,1.97,0,3.46-.35,4.47-1.05,1.01-.7,1.52-1.72,1.52-3.07,0-1.76-1-3.09-3.01-4.01l-5.44-2.59c-2.45-1.15-4.33-2.57-5.65-4.26-1.32-1.69-1.98-3.64-1.98-5.84,0-3.05.97-5.42,2.92-7.09,1.95-1.67,4.7-2.51,8.26-2.51,2.23,0,4.29.37,6.17,1.1,1.88.73,3.6,1.84,5.16,3.31l-4.06,4.48c-1.26-1.12-2.49-1.96-3.68-2.52s-2.38-.85-3.56-.85c-1.54,0-2.74.35-3.6,1.05-.85.7-1.28,1.71-1.28,3.04,0,.92.29,1.73.87,2.43.58.7,1.42,1.33,2.52,1.88l4.9,2.44c2.51,1.25,4.44,2.69,5.78,4.32,1.34,1.63,2.01,3.52,2.01,5.65,0,3.14-1.08,5.53-3.24,7.17-2.16,1.64-5.32,2.46-9.47,2.46Z"/><path class="cls-2" d="M315.57,37.35V11.24h5.47l.62,5.52v20.59h-6.08ZM331.25,37.35v-16.01c0-1.58-.36-2.79-1.08-3.64-.72-.85-1.74-1.28-3.05-1.28-3.64,0-5.47,2.41-5.47,7.24l-1.53-7.68h2.12c.2-1.76.81-3.07,1.84-3.93,1.03-.86,2.56-1.29,4.59-1.29,2.76,0,4.89.84,6.4,2.51,1.51,1.68,2.27,4.04,2.27,7.09v16.99h-6.08Z"/><path class="cls-2" d="M358.39,37.84c-4.48,0-7.95-1.17-10.39-3.51-2.45-2.34-3.67-5.7-3.67-10.08s1.04-7.59,3.12-9.95,5-3.55,8.78-3.55,6.46,1.08,8.46,3.25c1.99,2.17,2.99,5.31,2.99,9.43,0,1.2-.05,2.32-.15,3.37h-18.82v-4.38h13.15c0-1.99-.49-3.51-1.48-4.58-.98-1.07-2.36-1.6-4.11-1.6-1.92,0-3.42.67-4.48,2.02-1.07,1.35-1.6,3.26-1.6,5.74,0,2.68.76,4.72,2.29,6.12,1.53,1.4,3.69,2.1,6.5,2.1,1.15,0,2.28-.06,3.39-.18,1.11-.12,2.24-.29,3.39-.51l.64,5.62c-1.63.29-3.11.48-4.45.57-1.34.08-2.52.12-3.56.12Z"/><path class="cls-2" d="M381.59,37.84c-2.76,0-4.9-.67-6.42-2.02-1.52-1.35-2.28-3.25-2.28-5.71,0-2.86,1.02-5.05,3.05-6.57,2.04-1.53,4.92-2.29,8.65-2.29,1.48,0,2.77.08,3.89.25,1.12.16,2.18.42,3.2.76l-1.08,4.53c-1.07-.25-2.06-.39-2.98-.43-.92-.04-1.88-.06-2.88-.06-3.88,0-5.81,1.14-5.81,3.42,0,1,.34,1.77,1.02,2.29.68.53,1.67.79,2.97.79,1.51,0,2.77-.27,3.79-.82,1.02-.55,1.78-1.25,2.29-2.09s.76-1.72.76-2.62v-2.12l1.18,6.7h-2.09l.86-.79c-.03,1.51-.38,2.77-1.05,3.78-.67,1.01-1.6,1.77-2.8,2.27-1.2.5-2.63.75-4.29.75ZM390.58,37.59l-.47-7.73-.35-2.91v-5.76c0-1.53-.6-2.65-1.8-3.36-1.2-.71-2.99-1.1-5.37-1.17l-6.5-.17.49-5.49,5.52.07c4.56.07,7.95,1,10.17,2.8,2.22,1.8,3.33,4.42,3.33,7.87v10.15l3.94.54v4.93l-8.96.25Z"/><path class="cls-2" d="M404.03,37.35V.4h6.08v36.94h-6.08ZM407.97,27.82v-5.66h2.95c2.04,0,3.71-.35,5.02-1.06,1.31-.71,2.35-1.86,3.1-3.46.76-1.6,1.31-3.73,1.65-6.39h6.28c-.69,5.57-2.26,9.72-4.72,12.46-2.45,2.74-5.82,4.11-10.11,4.11h-4.19ZM421.34,37.35l-6.82-12.71,5.54-2.02,8.6,14.73h-7.32Z"/><path class="cls-2" d="M295.69,98.36c-1.99,0-3.89-.16-5.7-.49-1.81-.33-3.46-.81-4.94-1.43l.79-5.98c1.81.77,3.58,1.36,5.32,1.76,1.74.4,3.38.6,4.93.6,1.97,0,3.46-.35,4.47-1.05,1.01-.7,1.52-1.72,1.52-3.07,0-1.76-1-3.09-3.01-4.01l-5.44-2.59c-2.45-1.15-4.33-2.57-5.65-4.26-1.32-1.69-1.98-3.64-1.98-5.84,0-3.05.97-5.42,2.92-7.09,1.95-1.67,4.7-2.51,8.26-2.51,2.23,0,4.29.37,6.17,1.1,1.88.73,3.6,1.84,5.16,3.31l-4.06,4.48c-1.26-1.12-2.49-1.96-3.68-2.52-1.19-.57-2.38-.85-3.56-.85-1.54,0-2.74.35-3.6,1.05-.85.7-1.28,1.71-1.28,3.04,0,.92.29,1.73.87,2.43.58.7,1.42,1.33,2.52,1.88l4.9,2.44c2.51,1.25,4.44,2.69,5.78,4.32,1.34,1.63,2.01,3.52,2.01,5.65,0,3.14-1.08,5.53-3.24,7.17-2.16,1.64-5.32,2.46-9.47,2.46Z"/><path class="cls-2" d="M313.15,77.16v-5.39h24.14v5.39h-24.14ZM319.53,85.31v-21.43h6.06v21.43h-6.06ZM331.67,98.36c-4.29,0-7.38-.87-9.28-2.61-1.9-1.74-2.86-4.52-2.86-8.35v-3.82h6.06v3.32c0,2.02.51,3.49,1.53,4.41,1.02.92,2.7,1.38,5.05,1.38.77,0,1.6-.04,2.49-.14s1.9-.21,3.03-.36l.59,5.57c-1.1.2-2.18.34-3.24.44-1.06.1-2.18.15-3.36.15Z"/><path class="cls-2" d="M358.39,98.36c-4.48,0-7.95-1.17-10.39-3.51-2.45-2.34-3.67-5.7-3.67-10.08s1.04-7.59,3.12-9.95c2.08-2.36,5-3.55,8.78-3.55s6.46,1.08,8.46,3.25c1.99,2.17,2.99,5.31,2.99,9.43,0,1.2-.05,2.32-.15,3.37h-18.82v-4.38h13.15c0-1.99-.49-3.51-1.48-4.58-.98-1.07-2.36-1.6-4.11-1.6-1.92,0-3.42.67-4.48,2.02-1.07,1.35-1.6,3.26-1.6,5.74,0,2.68.76,4.72,2.29,6.12,1.53,1.4,3.69,2.1,6.5,2.1,1.15,0,2.28-.06,3.39-.18,1.11-.12,2.24-.29,3.39-.51l.64,5.62c-1.63.29-3.11.48-4.45.57-1.34.08-2.52.12-3.56.12Z"/><path class="cls-2" d="M381.59,98.36c-2.76,0-4.9-.67-6.42-2.02-1.52-1.35-2.28-3.25-2.28-5.71,0-2.86,1.02-5.05,3.05-6.57s4.92-2.29,8.65-2.29c1.48,0,2.77.08,3.89.25,1.12.16,2.18.42,3.2.76l-1.08,4.53c-1.07-.25-2.06-.39-2.98-.43-.92-.04-1.88-.06-2.88-.06-3.88,0-5.81,1.14-5.81,3.42,0,1,.34,1.77,1.02,2.29.68.53,1.67.79,2.97.79,1.51,0,2.77-.27,3.79-.82s1.78-1.25,2.29-2.09.76-1.72.76-2.62v-2.12l1.18,6.7h-2.09l.86-.79c-.03,1.51-.38,2.77-1.05,3.78-.67,1.01-1.6,1.77-2.8,2.27-1.2.5-2.63.75-4.29.75ZM390.58,98.12l-.47-7.73-.35-2.91v-5.76c0-1.53-.6-2.65-1.8-3.36-1.2-.71-2.99-1.1-5.37-1.17l-6.5-.17.49-5.49,5.52.07c4.56.07,7.95,1,10.17,2.8,2.22,1.8,3.33,4.42,3.33,7.87v10.15l3.94.54v4.93l-8.96.25Z"/><path class="cls-2" d="M402.5,66.32v-5.39h7.96v5.39h-7.96ZM419,98.36c-3.18,0-5.48-.87-6.88-2.61-1.41-1.74-2.11-4.52-2.11-8.35v-26.47h6.06v26.23c0,1.2.13,2.18.37,2.94.25.76.72,1.33,1.42,1.69.7.36,1.74.54,3.11.54s3.2-.31,5.37-.93l.69,5.93c-1.36.36-2.68.62-3.95.79-1.27.16-2.63.25-4.08.25Z"/><path class="cls-2" d="M431.37,77.16v-5.39h24.14v5.39h-24.14ZM437.75,85.31v-21.43h6.06v21.43h-6.06ZM449.89,98.36c-4.29,0-7.38-.87-9.28-2.61-1.9-1.74-2.86-4.52-2.86-8.35v-3.82h6.06v3.32c0,2.02.51,3.49,1.53,4.41,1.02.92,2.7,1.38,5.05,1.38.77,0,1.6-.04,2.49-.14s1.9-.21,3.03-.36l.59,5.57c-1.1.2-2.18.34-3.24.44s-2.18.15-3.36.15Z"/><path class="cls-2" d="M463.34,97.87v-36.94h6.08v36.94h-6.08ZM479.03,97.87v-16.26c0-1.54-.36-2.73-1.08-3.56-.72-.83-1.74-1.24-3.05-1.24-3.65,0-5.47,2.37-5.47,7.12l-1.53-7.44h2.12c.2-1.76.81-3.07,1.83-3.93,1.03-.86,2.56-1.29,4.59-1.29,2.76,0,4.89.84,6.4,2.51,1.51,1.68,2.27,4.04,2.27,7.09v16.99h-6.08Z"/></g><line id="Séparateur" class="cls-1" x1="260.4" y1="97.89" x2="260.4" y2="1.88"/></g></g></g></g></svg>